<svg enable-background="new 0 0 1000 250" viewBox="0 0 1000 250" xmlns="http://www.w3.org/2000/svg"><g fill="#FFFFFF"><path d="m109.8 145.3c0 4.9-.6 8.7-1.8 11.6s-2.8 4.8-4.9 6c-2.1 1.1-4.8 1.7-8.3 1.7-5 0-8.7-1.3-10.9-4-2.3-2.7-3.4-7.4-3.5-14.3l-.3-47.3h-10.9c-5.4 0-9.4-.9-12.1-2.6s-4-4.7-4-9.1c0-2.6.5-4.7 1.6-6.3 1.1-1.5 2.7-2.6 4.8-3.3 2.1-.6 5-1 8.6-1h54.8c4.8 0 8.2.9 10.4 2.6 2.1 1.7 3.2 4.7 3.2 8.8 0 2.8-.6 5-1.9 6.6-1.2 1.6-2.9 2.7-4.9 3.3s-4.7.9-7.9.9h-11.9z"/><path d="m173.1 145.3c0 6.7-1.2 11.5-3.7 14.6s-6.2 4.6-11.3 4.6c-4.9 0-8.6-1.3-10.9-4-2.3-2.6-3.5-7.4-3.5-14.2v-54.1c0-10.2 4.8-15.4 14.5-15.4 4.9 0 8.7.9 11.2 2.8s3.8 5.7 3.8 11.4v54.3z"/><path d="m265.3 152.4c0 3.8-1.1 6.7-3.3 8.9s-5.5 3.3-9.7 3.3c-1.1 0-2.2-.1-3.3-.4s-2.3-.7-3.5-1.4-2.3-1.3-3.3-1.9c-.9-.6-2.1-1.5-3.5-2.8-1.4-1.2-2.5-2.2-3.3-2.9s-2.1-1.9-3.8-3.5-2.9-2.8-3.7-3.6l-23.4-22.1v27.8c0 4.2-.8 7-2.4 8.6-1.6 1.5-4.1 2.3-7.5 2.3-3.8 0-6.5-.9-8.3-2.6s-2.7-4.6-2.7-8.6v-61.9c0-4.9 1.2-8.5 3.7-11s6-3.7 10.6-3.7c3.2 0 5.7.5 7.6 1.5s4.2 2.8 6.8 5.3l32.4 32.3v-28c0-3.7.9-6.4 2.8-8.3 1.8-1.8 4.3-2.8 7.5-2.8 3.7 0 6.3.9 7.9 2.6s2.4 4.5 2.4 8.3z"/><path d="m324.2 145.3c0 6.9-1.2 11.8-3.7 14.8-2.5 2.9-6.3 4.4-11.4 4.4-5 0-8.6-1.3-10.9-4s-3.5-7.4-3.6-14.3l-.1-20.7-19.7-23c-3.6-4.1-5.4-7.6-5.4-10.6 0-4.7 1.8-8.4 5.4-11.1 3.4-2.6 6.4-3.8 9.1-3.8 3.7 0 7 1.7 9.9 5l15.6 18.2 13.1-15.2c4.4-5.2 9-7.8 14-7.8 3.7 0 6.5 1 8.6 3.1 3.5 3.5 5.2 6.9 5.2 10.1 0 1.8-.6 3.7-1.8 5.7s-3.1 4.6-5.8 7.7l-18.4 22.5v19z"/><path d="m423 118.9c7.9 4.7 11.9 11 11.9 18.8 0 3.4-.7 6.7-2 9.8s-3.3 6-5.9 8.5c-2.6 2.6-6 4.6-10.3 6.1s-9.1 2.2-14.5 2.2h-29.7c-5.2 0-8.9-1.3-11.2-4-2.3-2.6-3.4-7.4-3.4-14.2v-54c0-2.9.5-5.5 1.5-7.7s2.7-4 4.9-5.4c2.3-1.4 5-2 8.1-2h29.3c8.5.1 15.6 2.4 21.3 7s8.5 10.4 8.5 17.6c0 2.3-.2 4.3-.6 6.1s-1 3.3-1.7 4.7c-.8 1.4-1.7 2.6-2.7 3.6s-2 1.9-3.5 2.9zm-17.4-17.4c0-3.6-1.4-6-4.2-7.4-2.8-1.3-7.4-2-13.9-2v19.6c4 0 7.3-.3 9.8-.9s4.5-1.6 6-3.1c1.5-1.4 2.3-3.5 2.3-6.2zm1.7 34.2c0-2.8-.7-5-2.2-6.5s-3.5-2.6-6.3-3.3c-2.7-.6-6.5-1-11.3-1v22.1c6.7 0 11.6-.8 14.8-2.5 3.3-1.6 5-4.5 5-8.8z"/><path d="m522.3 92.2v38.1c0 12.5-3 21.4-9 26.8s-16.1 8.1-30.4 8.1c-13.6 0-23.5-2.9-29.9-8.7s-9.5-14.5-9.5-26.2v-38.1c0-4.5 1.3-8.2 4-11.1s6.1-4.3 10.2-4.3c5 0 8.9.9 11.5 2.8s3.9 5.7 3.9 11.4v41.7c.1 2.7.5 4.9 1.3 6.5s1.9 2.8 3.3 3.4 3.1 1 5.2 1 3.9-.3 5.2-.8c1.4-.5 2.4-1.3 3-2.4s1.1-2.2 1.3-3.3.3-2.6.3-4.4v-41.8c0-2.9.4-5.3 1.1-7.3s1.8-3.4 3.3-4.4c1.5-.9 3-1.6 4.6-1.9s3.5-.5 5.7-.5c4.9 0 8.7 1.2 11.1 3.6 2.6 2.4 3.8 6.3 3.8 11.8z"/><path d="m566.1 77c13.3 0 24 3.8 32.1 11.5s12.1 18.3 12.1 31.7c0 4.4-.4 8.6-1.2 12.7s-2.2 8.1-4 12c-1.9 3.9-4.2 7.3-7 10.1-2.8 2.9-6.4 5.2-10.8 6.9-4.4 1.8-9.3 2.6-14.7 2.6h-25.2c-5.2 0-8.9-1.3-11.2-4-2.3-2.6-3.4-7.4-3.4-14.3v-54c0-10.2 4.9-15.2 14.6-15.2zm-3.8 70.1c2.2 0 4.2-.2 5.8-.7 1.7-.5 3.2-1.3 4.7-2.6 1.5-1.2 2.7-2.9 3.6-4.9s1.7-4.7 2.2-7.9c.6-3.2.8-7 .8-11.3 0-4.9-.4-9-1.3-12.4s-2.1-5.9-3.7-7.7c-1.6-1.7-3.4-3-5.3-3.7s-4.2-1.1-7-1.2v52.4z"/><path d="m651.9 77c13.3 0 24 3.8 32.1 11.5s12.1 18.3 12.1 31.7c0 4.4-.4 8.6-1.2 12.7s-2.2 8.1-4 12c-1.9 3.9-4.2 7.3-7 10.1-2.8 2.9-6.4 5.2-10.8 6.9-4.4 1.8-9.3 2.6-14.7 2.6h-25.4c-5.2 0-8.9-1.3-11.2-4-2.3-2.6-3.4-7.4-3.4-14.3v-54c.1-10.2 4.9-15.2 14.6-15.2zm-3.9 70.1c2.2 0 4.2-.2 5.8-.7 1.7-.5 3.2-1.3 4.7-2.6 1.5-1.2 2.7-2.9 3.6-4.9s1.7-4.7 2.2-7.9c.6-3.2.8-7 .8-11.3 0-4.9-.4-9-1.3-12.4s-2.1-5.9-3.7-7.7c-1.6-1.7-3.4-3-5.3-3.7s-4.2-1.1-7-1.2v52.4z"/><path d="m750.6 145.3c0 6.9-1.2 11.8-3.7 14.8-2.5 2.9-6.3 4.4-11.4 4.4-4.9 0-8.6-1.3-10.9-4s-3.5-7.4-3.6-14.3l-.1-20.7-19.7-23c-3.6-4.1-5.4-7.6-5.4-10.6 0-4.7 1.8-8.4 5.4-11.1 3.4-2.6 6.4-3.8 9.1-3.8 3.7 0 7 1.7 9.9 5l15.6 18.2 13.1-15.2c4.4-5.2 9-7.8 14-7.8 3.7 0 6.5 1 8.6 3.1 3.5 3.5 5.2 6.9 5.2 10.1 0 1.8-.6 3.7-1.8 5.7s-3.1 4.6-5.8 7.7l-18.4 22.5z"/></g><path d="m762 148.6c2.4-1.8 5.9-2.7 10.3-2.7 9.3 0 14 3.2 14 9.7 0 3.6-1.2 6.1-3.6 7.6s-5.8 2.2-10.4 2.2c-4 0-7.3-.8-10-2.3-2.6-1.5-4-4-4-7.4.1-2.9 1.3-5.3 3.7-7.1z" fill="#FFFFFF"/><path d="m828 75.9c10.2 0 18.8 2.1 26 6.3s10.8 8.6 10.8 13.3c0 1.3-.3 2.4-.8 3.3-.6.9-1.2 1.5-2 1.9s-1.7.6-2.6.6c-1.5 0-3.8-.8-6.9-2.4s-6.5-3.2-10.2-4.7c-3.8-1.6-7.2-2.4-10.4-2.4-5 0-7.6 2-7.6 6.1 0 1.3.4 2.5 1.2 3.6.8 1.2 2.1 2.3 3.9 3.6 1.8 1.2 3.5 2.3 5.2 3.3 1.7.9 4.1 2.2 7 3.8 3 1.6 5.5 3 7.6 4.2 6.6 3.8 11.2 7.3 13.8 10.8 2.6 3.4 4 7.3 4 11.8 0 17.7-11.9 26.5-35.7 26.5-4.7 0-9.2-.5-13.6-1.4s-8.2-2.2-11.5-3.7-6.2-3.2-8.7-5.1-4.4-3.8-5.7-5.8-1.9-3.8-1.9-5.5c0-1.9.6-3.5 1.9-4.8 1.2-1.3 3-2 5.4-2 1.8 0 6.1 1.1 12.9 3.4s12.3 3.4 16.5 3.4c3.8 0 5.8-1.3 5.8-4 0-.8-.2-1.5-.4-2.1-.3-.6-.8-1.3-1.5-1.9s-1.5-1.2-2.4-1.8-2.1-1.3-3.7-2.1c-1.6-.9-3.2-1.7-4.7-2.6-1.6-.9-3.6-2-6.2-3.3-2.6-1.4-5-2.7-7.4-4.1-3.2-1.8-5.9-4-8.1-6.7-2.3-2.6-3.9-5.3-4.9-7.9s-1.5-5-1.5-7.2c0-7.2 3.2-13 9.6-17.5 5.9-4.6 15-6.9 26.8-6.9z" fill="#FFFFFF"/><path d="m927.1 112.5c4.5 0 7.7.7 9.5 2.2s2.8 3.9 2.8 7.4c0 2.9-1.1 5-3.3 6.2s-5.6 1.9-10.2 1.9h-20.7v13.6l27.8.1c4.8 0 8.2.7 10.3 2.1s3.1 3.9 3.1 7.5c0 4.1-1.2 7-3.6 8.6s-6.1 2.4-11.1 2.4h-41.5c-5 0-8.7-1.3-11.1-4-2.3-2.7-3.5-7.4-3.5-14.3v-54c0-10.2 4.9-15.4 14.6-15.4h41.5c4.9 0 8.6.8 11.1 2.3 2.4 1.5 3.6 4.3 3.6 8.3 0 3.8-1 6.4-3.1 7.9s-5.5 2.2-10.3 2.2h-28v15z" fill="#FFFFFF"/><path d="m168.6 31.4c6 3.5 3.5 11.8-.2 14.5-2.4 1.7-5.2 1-6.8-1.6-2.1-3.5-.6-10.9 5-12.8.6-.1 1.3-.1 2-.1z" fill="#FFFFFF"/><path d="m152.1 31.4c4.4 2.3 6.2 5.8 5.5 10.8-.3 2.1-1.5 3.7-3.5 4.4-1.9.6-3.4-.3-4.7-1.6-4.2-4.1-3.9-10.4.7-13.7.6.1 1.3.1 2 .1z" fill="#FFFFFF"/><path d="m144.5 66.5c.1-2.7 2.3-5.5 4.6-8.3 1.6-1.9 3.7-3.4 5.9-4.5 2.8-1.4 5.6-1.6 8.3-.1 4.8 2.6 8.5 6.4 10.3 11.7 1.8 5.4-1.3 7.3-5.5 6.2-5.9-1.6-11.4-2.6-17.1-.2-.9.4-2 .2-3 .1-2.6-.1-3.5-1.1-3.5-4.9z" fill="#FFFFFF"/><path d="m142 44.3c.7-.1 1.5.2 2.3.6 3.3 1.7 5.5 7.1 4.2 10.5-1 2.6-3 3.5-5.6 2.5-3.6-1.4-6.2-7-4.9-10.6.7-1.8 1.8-3.1 4-3z" fill="#FFFFFF"/><path d="m180.7 49.3c.1 3.3-1.2 5.8-3.5 7.6-1.4 1.1-3 1.9-4.8 1-1.9-.9-2.6-2.5-2.7-4.4-.1-3 1.1-5.5 3.1-7.6 1.5-1.5 3.5-2.2 5.5-1.4 2 1 2.5 2.9 2.4 4.8z" fill="#FFFFFF"/></svg>